<?xml version="1.0" encoding="utf-8"?>
<!-- Generator: Adobe Illustrator 19.1.0, SVG Export Plug-In . SVG Version: 6.00 Build 0)  -->
<svg version="1.1" id="Layer_1" xmlns="http://www.w3.org/2000/svg" xmlns:xlink="http://www.w3.org/1999/xlink" x="0px" y="0px"
	 viewBox="0 0 200 200" style="enable-background:new 0 0 200 200;" xml:space="preserve">
<style type="text/css">
	.st0{fill:none;stroke:#FFFFFF;stroke-linecap:round;stroke-linejoin:round;stroke-miterlimit:10;}
</style>
<polygon class="st0" points="88.4,14.3 37.1,31.5 13.8,61.9 16.7,113.6 42.6,173 90.4,176.6 148,177.3 180.8,114.1 175.9,52.9 
	144.4,31.3 "/>
<polygon class="st0" points="41.5,39.1 10,74.8 5.6,123 44.2,160.7 117.6,181.5 181.9,162.1 174.1,53.6 129.5,12.3 70.3,16.5 "/>
<g>
	<polygon class="st0" points="70.2,82.1 97.2,91.5 149.8,75.3 123.3,65.9 	"/>
	<polyline class="st0" points="70.2,82.1 71.1,101.5 97.9,111.3 97.2,91.5 	"/>
	<polyline class="st0" points="149.8,75.3 149.7,95.9 97.9,111.3 73.3,118.7 73.6,137.9 125.3,122.8 125.3,103.2 	"/>
</g>
<polyline class="st0" points="71.1,101.5 47.3,109.2 73.3,118.7 "/>
<polyline class="st0" points="73.6,137.9 47.8,128.3 47.3,109.2 "/>
</svg>
