<?xml version="1.0" encoding="utf-8"?>
<!-- Generator: Adobe Illustrator 19.1.0, SVG Export Plug-In . SVG Version: 6.00 Build 0)  -->
<svg version="1.1" id="Layer_1" xmlns="http://www.w3.org/2000/svg" xmlns:xlink="http://www.w3.org/1999/xlink" x="0px" y="0px"
	 viewBox="-186.2 188.8 12.4 12.4" style="enable-background:new -186.2 188.8 12.4 12.4;" xml:space="preserve">
<style type="text/css">
	.st0{fill:#FFFFFF;}
</style>
<path class="st0" d="M-176,193.7c0-0.1,0-0.3-0.1-0.4l-0.7-0.7c-0.1-0.1-0.2-0.1-0.4-0.1c-0.1,0-0.3,0-0.4,0.1l-3.2,3.2l-1.8-1.8
	c-0.1-0.1-0.2-0.1-0.4-0.1s-0.3,0-0.4,0.1l-0.7,0.7c-0.1,0.1-0.1,0.2-0.1,0.4c0,0.1,0,0.3,0.1,0.4l2.8,2.8c0.1,0.1,0.2,0.1,0.4,0.1
	c0.1,0,0.3,0,0.4-0.1l4.2-4.2C-176,194-176,193.9-176,193.7L-176,193.7z M-174,195c0,1.1-0.3,2.1-0.8,3s-1.3,1.6-2.2,2.2
	s-1.9,0.8-3,0.8s-2.1-0.3-3-0.8s-1.6-1.3-2.2-2.2s-0.8-1.9-0.8-3s0.3-2.1,0.8-3s1.3-1.6,2.2-2.2s1.9-0.8,3-0.8s2.1,0.3,3,0.8
	s1.6,1.3,2.2,2.2S-174,193.9-174,195z"/>
</svg>
