<?xml version="1.0" encoding="utf-8"?>
<!-- Generator: Adobe Illustrator 19.1.0, SVG Export Plug-In . SVG Version: 6.00 Build 0)  -->
<svg version="1.1" id="Layer_1" xmlns="http://www.w3.org/2000/svg" xmlns:xlink="http://www.w3.org/1999/xlink" x="0px" y="0px"
	 viewBox="-101 80 36 42" style="enable-background:new -101 80 36 42;" xml:space="preserve">
<path d="M-71,83h-24c-3.3,0-6,2.7-6,6v24c0,3.3,2.7,6,6,6h12v-15.8h-4.5v-4.5h4.5v-3.4c0-3.1,2.5-5.6,5.6-5.6h5.6v4.5h-5.6
	c-0.6,0-1.1,0.5-1.1,1.1v3.4h6.2l-1.1,4.5h-5.1V119h7.5c3.3,0,6-2.7,6-6V89C-65,85.7-67.7,83-71,83L-71,83z"/>
</svg>
