<?xml version="1.0" encoding="utf-8"?>
<!-- Generated by IcoMoon.io -->
<!DOCTYPE svg PUBLIC "-//W3C//DTD SVG 1.1//EN" "http://www.w3.org/Graphics/SVG/1.1/DTD/svg11.dtd">
<svg version="1.1" xmlns="http://www.w3.org/2000/svg" xmlns:xlink="http://www.w3.org/1999/xlink" width="36" height="42" viewBox="0 0 36 42">
<path fill="#000000" d="M29.25 3q2.789 0 4.77 1.98t1.98 4.77v22.5q0 2.789-1.98 4.77t-4.77 1.98h-22.5q-2.789 0-4.77-1.98t-1.98-4.77v-22.5q0-2.789 1.98-4.77t4.77-1.98h22.5zM16.359 21q0-2.063-1.453-3.516t-3.516-1.453-3.516 1.453-1.453 3.516 1.453 3.516 3.516 1.453 3.516-1.453 1.453-3.516zM29.578 21q0-2.063-1.453-3.516t-3.516-1.453-3.516 1.453-1.453 3.516 1.453 3.516 3.516 1.453 3.516-1.453 1.453-3.516z"></path>
</svg>
