<?xml version="1.0" encoding="utf-8"?>
<!-- Generator: Adobe Illustrator 19.1.0, SVG Export Plug-In . SVG Version: 6.00 Build 0)  -->
<svg version="1.1" id="Layer_1" xmlns="http://www.w3.org/2000/svg" xmlns:xlink="http://www.w3.org/1999/xlink" x="0px" y="0px"
	 viewBox="0 0 304.6 105.9" style="enable-background:new 0 0 304.6 105.9;" xml:space="preserve">
<style type="text/css">
	.st0{fill:url(#SVGID_1_);}
	.st1{fill:url(#SVGID_2_);}
	.st2{fill:#00AFD0;}
	.st3{fill:#67727F;}
</style>
<g>
	<g>
		<g>
			<linearGradient id="SVGID_1_" gradientUnits="userSpaceOnUse" x1="76.4626" y1="-4.84" x2="18.2969" y2="102.3673">
				<stop  offset="0" style="stop-color:#E4E4E4"/>
				<stop  offset="0.4671" style="stop-color:#DFDFDF"/>
				<stop  offset="1" style="stop-color:#D1D2D2"/>
			</linearGradient>
			<path class="st0" d="M0,72.7c0.2,0.9,0.9,1.4,1.9,2.1l42.7,30.1c3.6,2.5,8.1,0,8.1-4.1l0.1-21.6L0,72.7z"/>
			<linearGradient id="SVGID_2_" gradientUnits="userSpaceOnUse" x1="69.7824" y1="-8.4643" x2="11.6168" y2="98.743">
				<stop  offset="0" style="stop-color:#E4E4E4"/>
				<stop  offset="0.7272" style="stop-color:#DFDFDF"/>
				<stop  offset="1" style="stop-color:#DCDBDB"/>
			</linearGradient>
			<path class="st1" d="M86.2,0H5.1C2.3,0,0,2.3,0,5.1V72h86.2c2.8,0,5.1-2.3,5.1-5.1V5.1C91.3,2.3,89,0,86.2,0z"/>
		</g>
		<polygon class="st2" points="41.4,102.7 52.8,79.2 35.2,77.1 27.5,92.9 		"/>
		<path class="st2" d="M0,72.7c0.2,0.9,0.9,1.4,1.9,2.1l11.5,8.1l3.9-8L0,72.7z"/>
		<path class="st2" d="M91.3,39.9L75.7,72h10.5c2.8,0,5.1-2.3,5.1-5.1V39.9z"/>
		<path class="st2" d="M15.8,0H5.1C2.3,0,0,2.3,0,5.1v27.6L15.8,0z"/>
		<path class="st2" d="M37.6,72h18.6L90.2,2c-0.9-1.2-2.4-2-4-2H72.5L37.6,72z"/>
		<polygon class="st2" points="34.9,0 0,72 0,72 18.6,72 53.5,0 		"/>
		<g>
			<path class="st3" d="M110.3,20.3h8.5c4,0,8.4,0.8,8.4,5.8c0,2.5-1.6,4.3-3.9,5v0.1c3,0.4,5,2.6,5,5.6c0,4.8-4.5,6.4-8.6,6.4h-9.4
				V20.3z M115.3,29.4h3.6c1.5,0,3.2-0.6,3.2-2.5c0-1.9-1.8-2.4-3.4-2.4h-3.4V29.4z M115.3,38.9h4.5c1.6,0,3.4-0.7,3.4-2.7
				c0-2.2-2.4-2.5-4.1-2.5h-3.8V38.9z"/>
			<path class="st3" d="M145.7,43.1h-4.6V41H141c-0.6,1.2-2.2,2.5-4.6,2.5c-4.9,0-5.8-3.2-5.8-7.4v-8.6h4.8v7.7c0,1.8,0,4.1,2.5,4.1
				c2.5,0,2.9-2,2.9-4v-7.8h4.8V43.1z"/>
			<path class="st3" d="M151.6,19.7c1.5,0,2.8,1.3,2.8,2.8c0,1.5-1.3,2.8-2.8,2.8s-2.8-1.3-2.8-2.8C148.8,21,150.1,19.7,151.6,19.7z
				 M149.2,27.4h4.8v15.7h-4.8V27.4z"/>
			<path class="st3" d="M158,18.7h4.8v24.4H158V18.7z"/>
			<path class="st3" d="M182.3,43.1h-4.5v-2.1h-0.1c-0.7,1.1-2.6,2.5-4.8,2.5c-4.6,0-7.7-3.4-7.7-8.1c0-4.4,2.7-8.4,7.2-8.4
				c2,0,3.9,0.5,5,2.1h0.1V18.7h4.8V43.1z M174,31.3c-2.4,0-3.9,1.6-3.9,4c0,2.4,1.5,4,3.9,4c2.4,0,3.9-1.6,3.9-4
				C177.9,32.9,176.4,31.3,174,31.3z"/>
			<path class="st3" d="M188.5,19.7c1.5,0,2.8,1.3,2.8,2.8c0,1.5-1.3,2.8-2.8,2.8s-2.8-1.3-2.8-2.8C185.6,21,186.9,19.7,188.5,19.7z
				 M186,27.4h4.8v15.7H186V27.4z"/>
			<path class="st3" d="M194.4,27.4h4.6v2.1h0.1c0.6-1.2,2.2-2.5,4.6-2.5c4.9,0,5.8,3.2,5.8,7.4v8.6h-4.8v-7.7c0-1.8,0-4.1-2.5-4.1
				c-2.5,0-2.9,2-2.9,4v7.8h-4.8V27.4z"/>
			<path class="st3" d="M229.2,41.8c0,5.9-3,9.1-9.1,9.1c-2,0-4-0.2-5.8-1c-0.7-0.3-1.5-0.7-2.1-1.3l2.7-4c1.5,1.3,3.1,2,5.1,2
				c2.9,0,4.3-1.6,4.3-3.8v-1.5h-0.1c-1.1,1.5-3,2.1-4.4,2.1c-4.6,0-7.7-3.4-7.7-8.1c0-4.2,2.7-8.2,7.2-8.2c2.7,0,4.6,1.3,5.4,2.5
				h0.1v-2.1h4.4V41.8z M220.8,39.1c2.2,0,3.9-1.8,3.9-3.9c0-2-1.7-3.9-3.9-3.9c-2.2,0-3.9,1.8-3.9,3.9
				C217,37.2,218.6,39.1,220.8,39.1z"/>
			<path class="st3" d="M244.7,32.9l-8.6-13.1h6.3l4.8,8.5l5.1-8.5h6l-8.6,13.1v9.7h-5V32.9z"/>
			<path class="st3" d="M263.5,26.6c4.8,0,8.7,3.2,8.7,8.2c0,5-3.9,8.2-8.7,8.2c-4.8,0-8.7-3.2-8.7-8.2
				C254.7,29.8,258.6,26.6,263.5,26.6z M263.5,38.8c2.4,0,3.9-1.6,3.9-4c0-2.4-1.5-4-3.9-4c-2.4,0-3.9,1.6-3.9,4
				C259.6,37.2,261,38.8,263.5,38.8z"/>
			<path class="st3" d="M290.1,42.7h-4.6v-2.1h-0.1c-0.6,1.2-2.2,2.5-4.6,2.5c-4.9,0-5.8-3.2-5.8-7.4V27h4.8v7.7
				c0,1.8,0,4.1,2.5,4.1c2.5,0,2.9-2,2.9-4V27h4.8V42.7z"/>
			<path class="st3" d="M293.5,27h4.8v2.5h0.1c1-1.9,2.4-2.9,4.5-2.9c0.5,0,1.2,0,1.6,0.2v4.4c-0.7-0.2-1.4-0.3-2.1-0.3
				c-3.7,0-4.1,2.1-4.1,5.3v6.5h-4.8V27z"/>
			<g>
				<path class="st3" d="M110.3,49.2h5v18.2h9.3V72h-14.4V49.2z"/>
				<path class="st3" d="M129.6,48.6c1.5,0,2.8,1.3,2.8,2.8s-1.3,2.8-2.8,2.8c-1.5,0-2.8-1.3-2.8-2.8S128,48.6,129.6,48.6z
					 M127.1,56.3h4.8V72h-4.8V56.3z"/>
				<path class="st3" d="M135.7,47.6h4.8V58h0.1c1.1-1.5,3-2.1,5-2.1c4.5,0,7.2,4,7.2,8.4c0,4.7-3.1,8.1-7.7,8.1
					c-2.2,0-4.1-1.3-4.8-2.5h-0.1V72h-4.5V47.6z M144,68.1c2.4,0,3.9-1.6,3.9-4c0-2.4-1.5-4-3.9-4c-2.4,0-3.9,1.6-3.9,4
					C140.1,66.5,141.6,68.1,144,68.1z"/>
				<path class="st3" d="M154.9,56.3h4.8v2.5h0.1c1-1.9,2.4-2.9,4.5-2.9c0.5,0,1.2,0,1.6,0.2v4.4c-0.7-0.2-1.4-0.3-2.1-0.3
					c-3.7,0-4.1,2.1-4.1,5.3V72h-4.8V56.3z"/>
				<path class="st3" d="M177.2,70L177.2,70c-1.1,1.7-3.1,2.4-5,2.4c-2.9,0-5.6-1.7-5.6-4.8c0-5.4,6.6-5.5,10.6-5.5
					c0-1.7-1.4-2.8-3.1-2.8c-1.6,0-2.9,0.7-3.9,1.9l-2.6-2.6c1.8-1.7,4.4-2.5,6.9-2.5c5.6,0,7.2,2.9,7.2,8.1v8h-4.4V70z M176,65.1
					c-1.5,0-4.8,0.1-4.8,2.3c0,1.2,1.2,1.7,2.3,1.7c1.9,0,3.7-1,3.7-2.9v-1H176z"/>
				<path class="st3" d="M184.7,56.3h4.8v2.5h0.1c1-1.9,2.4-2.9,4.5-2.9c0.5,0,1.2,0,1.6,0.2v4.4c-0.7-0.2-1.4-0.3-2.1-0.3
					c-3.7,0-4.1,2.1-4.1,5.3V72h-4.8V56.3z"/>
				<path class="st3" d="M208.2,74.6c-1.3,3.3-2,5.2-6.6,5.2c-1.2,0-2.5-0.2-3.6-0.6l0.6-4c0.7,0.3,1.5,0.5,2.3,0.5
					c2.2,0,2.5-0.9,3.2-2.6l0.4-0.9l-6.9-15.8h5.2l4,10.4h0.1l3.5-10.4h5L208.2,74.6z"/>
			</g>
		</g>
	</g>
</g>
</svg>
